<?xml version="1.0" encoding="UTF-8"?>
<!DOCTYPE svg PUBLIC "-//W3C//DTD SVG 1.1//EN" "http://www.w3.org/Graphics/SVG/1.1/DTD/svg11.dtd">
<svg width="160mm" height="90mm" viewBox="0 0 16000 9000" version="1.1" xmlns="http://www.w3.org/2000/svg" stroke-width="28.222" stroke-linejoin="round" xml:space="preserve">
 <path fill="rgb(255,255,255)" stroke="none" d="M 8000,8999 L 0,8999 0,0 15999,0 15999,8999 8000,8999 Z"/>
 <path fill="none" stroke="rgb(179,179,179)" stroke-linejoin="round" d="M 8633,7389 L 2053,7389 2053,379 15214,379 15214,7389 8633,7389 Z"/>
 <path fill="none" stroke="rgb(179,179,179)" stroke-linejoin="round" d="M 15214,7388 L 2053,7388"/>
 <path fill="none" stroke="rgb(179,179,179)" stroke-linejoin="round" d="M 15214,6219 L 2053,6219"/>
 <path fill="none" stroke="rgb(179,179,179)" stroke-linejoin="round" d="M 15214,5051 L 2053,5051"/>
 <path fill="none" stroke="rgb(179,179,179)" stroke-linejoin="round" d="M 15214,3883 L 2053,3883"/>
 <path fill="none" stroke="rgb(179,179,179)" stroke-linejoin="round" d="M 15214,2715 L 2053,2715"/>
 <path fill="none" stroke="rgb(179,179,179)" stroke-linejoin="round" d="M 15214,1546 L 2053,1546"/>
 <path fill="none" stroke="rgb(179,179,179)" stroke-linejoin="round" d="M 15214,378 L 2053,378"/>
 <path fill="none" stroke="rgb(179,179,179)" stroke-linejoin="round" d="M 2053,7538 L 2053,7388"/>
 <path fill="none" stroke="rgb(179,179,179)" stroke-linejoin="round" d="M 2053,7538 L 2053,7388"/>
 <path fill="none" stroke="rgb(179,179,179)" stroke-linejoin="round" d="M 4246,7538 L 4246,7388"/>
 <path fill="none" stroke="rgb(179,179,179)" stroke-linejoin="round" d="M 4246,7538 L 4246,7388"/>
 <path fill="none" stroke="rgb(179,179,179)" stroke-linejoin="round" d="M 6440,7538 L 6440,7388"/>
 <path fill="none" stroke="rgb(179,179,179)" stroke-linejoin="round" d="M 6440,7538 L 6440,7388"/>
 <path fill="none" stroke="rgb(179,179,179)" stroke-linejoin="round" d="M 8633,7538 L 8633,7388"/>
 <path fill="none" stroke="rgb(179,179,179)" stroke-linejoin="round" d="M 8633,7538 L 8633,7388"/>
 <path fill="none" stroke="rgb(179,179,179)" stroke-linejoin="round" d="M 10826,7538 L 10826,7388"/>
 <path fill="none" stroke="rgb(179,179,179)" stroke-linejoin="round" d="M 10826,7538 L 10826,7388"/>
 <path fill="none" stroke="rgb(179,179,179)" stroke-linejoin="round" d="M 13020,7538 L 13020,7388"/>
 <path fill="none" stroke="rgb(179,179,179)" stroke-linejoin="round" d="M 13020,7538 L 13020,7388"/>
 <path fill="none" stroke="rgb(179,179,179)" stroke-linejoin="round" d="M 15214,7538 L 15214,7388"/>
 <path fill="none" stroke="rgb(179,179,179)" stroke-linejoin="round" d="M 15214,7538 L 15214,7388"/>
 <path fill="none" stroke="rgb(179,179,179)" stroke-linejoin="round" d="M 2053,7388 L 15214,7388"/>
 <path fill="none" stroke="rgb(179,179,179)" stroke-linejoin="round" d="M 1903,7388 L 2053,7388"/>
 <path fill="none" stroke="rgb(179,179,179)" stroke-linejoin="round" d="M 1903,7388 L 2053,7388"/>
 <path fill="none" stroke="rgb(179,179,179)" stroke-linejoin="round" d="M 1903,6219 L 2053,6219"/>
 <path fill="none" stroke="rgb(179,179,179)" stroke-linejoin="round" d="M 1903,6219 L 2053,6219"/>
 <path fill="none" stroke="rgb(179,179,179)" stroke-linejoin="round" d="M 1903,5051 L 2053,5051"/>
 <path fill="none" stroke="rgb(179,179,179)" stroke-linejoin="round" d="M 1903,5051 L 2053,5051"/>
 <path fill="none" stroke="rgb(179,179,179)" stroke-linejoin="round" d="M 1903,3883 L 2053,3883"/>
 <path fill="none" stroke="rgb(179,179,179)" stroke-linejoin="round" d="M 1903,3883 L 2053,3883"/>
 <path fill="none" stroke="rgb(179,179,179)" stroke-linejoin="round" d="M 1903,2715 L 2053,2715"/>
 <path fill="none" stroke="rgb(179,179,179)" stroke-linejoin="round" d="M 1903,2715 L 2053,2715"/>
 <path fill="none" stroke="rgb(179,179,179)" stroke-linejoin="round" d="M 1903,1546 L 2053,1546"/>
 <path fill="none" stroke="rgb(179,179,179)" stroke-linejoin="round" d="M 1903,1546 L 2053,1546"/>
 <path fill="none" stroke="rgb(179,179,179)" stroke-linejoin="round" d="M 1903,378 L 2053,378"/>
 <path fill="none" stroke="rgb(179,179,179)" stroke-linejoin="round" d="M 1903,378 L 2053,378"/>
 <path fill="none" stroke="rgb(179,179,179)" stroke-linejoin="round" d="M 2053,7388 L 2053,378"/>
 <path fill="none" stroke="rgb(0,69,134)" stroke-width="80" stroke-linejoin="round" d="M 2054,7363 L 2056,7360 2067,7348 2080,7334 2081,7333 2094,7324 2097,7321 2108,7313 2117,7308 2122,7304 2136,7295 2149,7286 2157,7281 2163,7275 2165,7265 2170,7254 2175,7241 2176,7238 2184,7225 2189,7211 2191,7206 2194,7201 2204,7191 2208,7188 2218,7181 2229,7175 2231,7173 2246,7164 2249,7162 2259,7154 2263,7148 2272,7133 2273,7130 2276,7121 2283,7108 2286,7102 2292,7095 2299,7082 2300,7080 2314,7071 2316,7069 2328,7062 2335,7056 2341,7052 2355,7045 2360,7043 2368,7036 2374,7029 2383,7021 2386,7015 2393,7003 2396,6997 2403,6986 2410,6977 2411,6976 2423,6968 2437,6963 2439,6963 2451,6959 2465,6954 2474,6950 2478,6946 2492,6936 2499,6923 2505,6912 2508,6910 2516,6896 2520,6892 2533,6884 2547,6879 2560,6874 2571,6871 2575,6869 2589,6861 2593,6857 2602,6852 2607,6842 2614,6830 2616,6828 2623,6817 2629,6809 2636,6803 2644,6799 2657,6794 2665,6791 2671,6789 2684,6784 2696,6777 2699,6775 2712,6765 2713,6764 2720,6751 2726,6743 2733,6733 2739,6725 2740,6724 2753,6717 2767,6714 2772,6712 2781,6708 2794,6703 2804,6698 2808,6694 2820,6685 2821,6684 2829,6672 2836,6663 2841,6658 2849,6645 2850,6644 2863,6638 2876,6633 2878,6632 2890,6628 2904,6624 2914,6618 2918,6614 2930,6605 2931,6603 2937,6592 2943,6578 2945,6574 2951,6566 2958,6551 2969,6538 2973,6534 2979,6526 2986,6518 2990,6512 3000,6501 3002,6499 3012,6486 3013,6485 3026,6472 3028,6471 3035,6460 3041,6453 3046,6445 3052,6433 3055,6428 3060,6420 3064,6406 3068,6400 3073,6393 3082,6389 3096,6385 3110,6380 3124,6375 3136,6366 3137,6365 3150,6352 3152,6349 3156,6339 3161,6322 3164,6314 3165,6312 3170,6301 3172,6287 3178,6273 3179,6271 3184,6258 3192,6252 3196,6247 3206,6239 3214,6234 3220,6229 3229,6221 3234,6219 3244,6208 3247,6203 3251,6194 3261,6181 3267,6168 3272,6132 3273,6128 3274,6127 3281,6113 3284,6099 3289,6089 3299,6075 3302,6073 3316,6064 3320,6062 3329,6057 3343,6049 3345,6048 3357,6036 3358,6034 3368,6018 3370,6009 3371,6006 3375,5995 3381,5981 3383,5969 3384,5965 3390,5954 3393,5940 3397,5927 3398,5926 3403,5916 3407,5744 3411,5735 3418,5730 3426,5723 3431,5717 3439,5711 3450,5704 3453,5703 3465,5691 3466,5689 3476,5677 3481,5673 3487,5664 3494,5652 3495,5649 3508,5638 3521,5631 3535,5625 3549,5618 3563,5612 3565,5611 3576,5606 3590,5598 3600,5585 3603,5581 3612,5571 3618,5567 3629,5558 3631,5557 3645,5552 3658,5545 3659,5545 3673,5538 3680,5532 3687,5528 3700,5520 3702,5518 3713,5505 3714,5504 3727,5492 3742,5486 3755,5480 3759,5479 3769,5475 3782,5470 3792,5465 3796,5463 3809,5452 3810,5451 3821,5439 3824,5436 3837,5426 3838,5426 3851,5421 3864,5416 3873,5412 3879,5410 3892,5406 3906,5399 3919,5392 3925,5386 3934,5377 3939,5372 3947,5367 3961,5362 3969,5359 3974,5358 3988,5353 4002,5348 4006,5346 4016,5341 4029,5335 4031,5332 4043,5320 4044,5320 4056,5310 4063,5307 4071,5304 4084,5300 4098,5294 4101,5293 4111,5289 4126,5282 4130,5280 4139,5275 4146,5266 4153,5260 4161,5253 4167,5249 4180,5243 4188,5240 4195,5237 4207,5227 4208,5226 4217,5213 4222,5199 4225,5187 4229,5170 4231,5154 4232,5145 4233,5134 4235,5112 4236,5100 4237,5088 4238,5076 4240,5065 4241,5053 4243,5037 4246,5027 4249,5010 4252,4998 4253,4988 4254,4975 4255,4961 4257,4946 4262,4934 4263,4933 4271,4921 4277,4917 4286,4909 4290,4906 4303,4896 4304,4895 4317,4887 4324,4882 4332,4878 4344,4868 4345,4867 4358,4855 4359,4853 4366,4842 4372,4832 4376,4829 4381,4816 4387,4810 4393,4803 4400,4799 4413,4789 4414,4788 4427,4781 4435,4776 4441,4774 4455,4765 4457,4763 4466,4745 4469,4739 4471,4737 4480,4723 4482,4721 4491,4707 4496,4703 4503,4695 4509,4692 4523,4683 4524,4681 4537,4673 4541,4670 4551,4665 4563,4657 4564,4656 4579,4646 4581,4643 4589,4626 4592,4625 4600,4617 4606,4611 4614,4604 4619,4602 4626,4455 4633,4451 4643,4446 4647,4444 4661,4436 4665,4433 4674,4428 4688,4419 4699,4406 4702,4404 4716,4394 4717,4393 4730,4387 4743,4382 4747,4379 4757,4374 4770,4367 4785,4359 4796,4353 4798,4350 4807,4340 4812,4334 4819,4326 4825,4313 4832,4300 4840,4291 4847,4287 4853,4284 4867,4278 4878,4274 4880,4273 4894,4262 4898,4260 4908,4255 4915,4247 4922,4242 4934,4234 4935,4233 4949,4228 4962,4223 4969,4221 4977,4218 4990,4214 5003,4207 5004,4207 5017,4200 5023,4194 5031,4187 5044,4181 5045,4180 5059,4175 5072,4170 5080,4168 5086,4166 5100,4162 5114,4155 5115,4154 5127,4148 5135,4140 5141,4135 5154,4128 5169,4122 5182,4117 5191,4115 5196,4113 5209,4108 5223,4101 5238,4094 5244,4087 5251,4083 5265,4076 5266,4075 5278,4071 5293,4067 5306,4063 5309,4062 5320,4058 5333,4052 5342,4049 5347,4043 5355,4035 5361,4030 5372,4022 5375,4020 5388,4010 5390,4009 5402,4003 5415,3996 5418,3995 5430,3989 5442,3982 5443,3981 5457,3969 5458,3969 5470,3956 5471,3956 5481,3942 5484,3940 5498,3931 5501,3929 5512,3923 5525,3918 5529,3916 5539,3912 5552,3906 5559,3903 5567,3890 5580,3881 5588,3876 5594,3873 5607,3865 5613,3863 5622,3857 5635,3851 5639,3850 5649,3846 5662,3841 5676,3836 5690,3830 5703,3823 5704,3823 5717,3814 5727,3810 5731,3809 5746,3804 5759,3800 5772,3797 5773,3796 5786,3792 5800,3787 5810,3784 5814,3782 5828,3778 5841,3772 5844,3655 5855,3652 5856,3651 5868,3648 5883,3644 5896,3640 5905,3638 5910,3636 5923,3631 5937,3626 5943,3624 5951,3622 5965,3618 5978,3613 5980,3611 5992,3608 6005,3604 6020,3600 6025,3598 6033,3595 6047,3590 6060,3586 6061,3585 6075,3581 6088,3577 6102,3573 6106,3572 6115,3568 6129,3564 6143,3560 6152,3558 6157,3557 6170,3553 6184,3550 6197,3547 6206,3545 6212,3543 6225,3539 6239,3536 6252,3532 6254,3532 6267,3528 6281,3524 6294,3521 6305,3518 6308,3518 6321,3514 6336,3511 6349,3507 6356,3505 6363,3503 6376,3500 6390,3496 6404,3493 6410,3492 6418,3490 6431,3487 6445,3482 6453,3478 6458,3475 6473,3467 6476,3465 6486,3460 6500,3453 6501,3452 6513,3447 6528,3440 6530,3438 6541,3433 6555,3425 6568,3417 6574,3412 6582,3405 6596,3399 6610,3392 6623,3387 6625,3386 6637,3382 6650,3376 6657,3373 6665,3360 6667,3359 6678,3354 6692,3348 6695,3346 6705,3342 6720,3333 6721,3333 6733,3328 6747,3323 6757,3319 6760,3318 6774,3313 6788,3308 6793,3297 6802,3293 6803,3293 6816,3289 6829,3283 6840,3280 6843,3279 6857,3276 6871,3272 6884,3268 6891,3266 6898,3263 6911,3259 6926,3254 6928,3250 6939,3246 6953,3241 6958,3240 6966,3238 6981,3233 6994,3229 7001,3227 7008,3224 7021,3218 7035,3213 7049,3208 7060,3200 7063,3160 7076,3154 7090,3150 7100,3147 7103,3146 7118,3141 7131,3137 7141,3134 7145,3133 7158,3129 7173,3124 7186,3121 7200,3115 7213,3111 7224,3108 7227,3107 7241,3101 7255,3098 7266,3094 7268,3094 7282,3090 7295,3087 7307,3081 7310,3080 7324,3076 7337,3072 7350,3068 7351,3067 7364,3064 7379,3060 7392,3056 7398,3055 7406,3053 7419,3049 7434,3045 7447,3041 7461,3038 7474,3035 7488,3031 7502,3028 7503,3028 7516,3025 7529,3022 7543,3016 7545,3015 7556,3009 7570,3001 7571,3000 7584,2993 7594,2987 7598,2986 7611,2979 7619,2975 7626,2972 7639,2966 7647,2962 7653,2958 7666,2949 7667,2948 7680,2938 7687,2935 7694,2932 7708,2925 7714,2922 7721,2920 7735,2914 7748,2909 7751,2909 7758,2895 7763,2893 7776,2886 7783,2882 7790,2879 7803,2873 7812,2868 7817,2862 7831,2856 7832,2856 7845,2850 7859,2845 7866,2842 7872,2839 7887,2833 7894,2829 7900,2828 7914,2823 7927,2818 7934,2816 7941,2813 7955,2809 7969,2805 7975,2803 7982,2800 7996,2795 8008,2790 8011,2781 8023,2777 8025,2776 8036,2772 8050,2767 8061,2763 8063,2762 8078,2758 8091,2754 8103,2750 8105,2749 8118,2743 8132,2739 8138,2736 8146,2724 8147,2723 8160,2717 8173,2714 8186,2710 8187,2710 8200,2705 8215,2699 8220,2696 8228,2694 8242,2689 8255,2684 8256,2683 8269,2678 8280,2641 8283,2641 8297,2635 8310,2631 8313,2631 8324,2627 8337,2624 8352,2620 8363,2617 8365,2617 8379,2613 8393,2609 8407,2605 8409,2604 8421,2600 8434,2596 8448,2592 8453,2591 8461,2588 8476,2583 8489,2579 8495,2577 8503,2575 8516,2571 8530,2566 8539,2564 8544,2563 8558,2559 8571,2555 8585,2551 8586,2551 8598,2547 8613,2542 8626,2538 8640,2532 8653,2526 8657,2524 8668,2519 8681,2513 8686,2511 8695,2507 8708,2500 8713,2498 8722,2494 8736,2488 8743,2485 8750,2481 8763,2473 8765,2471 8777,2462 8789,2458 8790,2458 8805,2453 8818,2448 8829,2445 8832,2443 8845,2439 8852,2429 8860,2425 8873,2420 8876,2418 8887,2414 8901,2408 8909,2405 8914,2402 8929,2396 8941,2392 8942,2391 8956,2387 8969,2383 8981,2379 8983,2378 8997,2372 9011,2368 9023,2365 9024,2365 9038,2361 9051,2357 9066,2354 9072,2352 9079,2350 9093,2346 9106,2342 9118,2339 9121,2338 9134,2334 9148,2330 9161,2327 9168,2326 9175,2324 9189,2320 9203,2316 9214,2312 9216,2312 9230,2300 9232,2299 9243,2295 9258,2290 9271,2287 9274,2286 9285,2283 9298,2279 9313,2274 9318,2273 9326,2270 9340,2266 9353,2262 9362,2259 9367,2250 9379,2246 9381,2246 9395,2242 9408,2238 9422,2234 9427,2233 9436,2231 9450,2228 9464,2224 9477,2221 9481,2220 9491,2217 9499,2187 9504,2186 9519,2182 9524,2180 9532,2178 9546,2174 9559,2171 9574,2167 9575,2167 9587,2163 9601,2160 9614,2156 9624,2153 9628,2152 9642,2148 9656,2144 9669,2140 9670,2140 9683,2137 9696,2130 9707,2127 9711,2126 9724,2121 9738,2115 9742,2113 9751,2109 9766,2102 9772,2100 9779,2097 9793,2091 9804,2087 9806,2086 9820,2078 9831,2074 9834,2073 9848,2066 9857,2060 9861,2058 9875,2049 9883,2047 9888,2045 9903,2040 9916,2036 9920,2034 9930,2031 9943,2026 9948,2021 9957,2013 9971,2007 9972,2007 9985,2002 9999,1997 10007,1994 10012,1992 10027,1986 10040,1981 10054,1977 10067,1973 10081,1968 10083,1968 10095,1965 10109,1961 10122,1958 10136,1955 10138,1954 10149,1952 10164,1949 10177,1945 10187,1941 10191,1939 10204,1935 10219,1931 10231,1928 10232,1927 10246,1924 10259,1920 10273,1916 10280,1915 10287,1913 10301,1909 10314,1904 10322,1901 10328,1899 10341,1896 10356,1892 10369,1889 10371,1888 10383,1885 10396,1882 10410,1878 10424,1875 10438,1872 10451,1864 10460,1862 10465,1860 10480,1857 10493,1854 10507,1850 10511,1848 10520,1846 10534,1842 10548,1838 10559,1835 10562,1834 10575,1831 10583,1818 10589,1816 10602,1812 10614,1809 10617,1808 10630,1804 10644,1800 10657,1797 10663,1796 10672,1792 10685,1788 10699,1784 10704,1782 10712,1771 10714,1769 10726,1765 10740,1760 10754,1757 10757,1756 10767,1754 10781,1750 10794,1747 10809,1744 10813,1742 10822,1740 10836,1734 10843,1729 10849,1725 10863,1717 10869,1716 10877,1712 10891,1706 10896,1703 10904,1699 10918,1692 10925,1689 10931,1686 10946,1676 10959,1666 10963,1663 10973,1658 10986,1653 10994,1649 11001,1647 11015,1641 11027,1636 11028,1636 11042,1631 11046,1622 11055,1616 11069,1610 11070,1609 11083,1604 11097,1599 11104,1596 11110,1593 11125,1588 11138,1584 11139,1583 11152,1579 11165,1574 11173,1570 11179,1567 11193,1562 11207,1558 11210,1557 11220,1554 11234,1549 11247,1545 11250,1544 11262,1540 11275,1534 11281,1531 11289,1527 11302,1523 11316,1518 11321,1517 11330,1514 11344,1509 11357,1505 11358,1504 11371,1500 11384,1494 11389,1491 11399,1486 11412,1478 11414,1477 11426,1473 11439,1469 11454,1464 11467,1460 11481,1454 11489,1451 11494,1448 11508,1441 11519,1437 11522,1437 11536,1433 11550,1429 11563,1424 11577,1419 11591,1414 11598,1411 11605,1408 11618,1401 11627,1398 11632,1396 11646,1391 11660,1386 11662,1385 11673,1376 11686,1371 11687,1371 11700,1366 11715,1359 11716,1358 11728,1353 11742,1348 11755,1345 11757,1345 11769,1342 11783,1338 11797,1335 11801,1325 11810,1323 11818,1318 11824,1314 11837,1306 11840,1305 11852,1301 11865,1295 11874,1292 11879,1290 11892,1284 11907,1279 11909,1279 11920,1274 11932,1265 11934,1264 11947,1254 11954,1252 11961,1248 11975,1243 11983,1239 11989,1236 12002,1230 12013,1225 12016,1224 12029,1217 12035,1212 12044,1204 12049,1199 12058,1192 12069,1186 12071,1185 12085,1180 12098,1174 12103,1172 12113,1169 12126,1163 12134,1159 12140,1154 12143,1144 12153,1137 12160,1132 12168,1128 12181,1122 12190,1119 12195,1118 12208,1111 12221,1106 12222,1106 12236,1101 12250,1095 12254,1093 12263,1089 12277,1083 12289,1080 12290,1079 12305,1076 12318,1072 12332,1069 12343,1067 12345,1066 12360,1063 12373,1058 12385,1053 12387,1052 12400,1049 12414,1046 12424,1040 12428,1039 12442,1036 12455,1033 12469,1029 12476,1027 12482,1025 12497,1018 12510,1014 12512,1014 12524,1011 12537,1007 12551,1004 12565,1001 12567,1000 12579,997 12593,992 12606,988 12610,987 12621,982 12634,978 12648,974 12650,974 12661,971 12675,967 12689,962 12693,960 12703,957 12716,953 12730,949 12738,947 12743,946 12758,940 12771,937 12781,934 12785,933 12798,929 12813,923 12819,921 12826,918 12840,913 12853,909 12858,907 12867,903 12881,897 12885,889 12895,885 12901,881 12908,879 12922,869 12924,867 12935,862 12950,856 12955,854 12963,851 12977,846 12990,841 13004,837 13018,832 13020,821"/>
 <text class="TextShape"><tspan class="TextParagraph" font-family="Liberation Sans, sans-serif" font-size="353px" font-weight="400"><tspan class="TextPosition" x="1960" y="7956"><tspan fill="rgb(0,0,0)" stroke="none">0</tspan></tspan></tspan></text>
 <text class="TextShape"><tspan class="TextParagraph" font-family="Liberation Sans, sans-serif" font-size="353px" font-weight="400"><tspan class="TextPosition" x="3875" y="7956"><tspan fill="rgb(0,0,0)" stroke="none">2000</tspan></tspan></tspan></text>
 <text class="TextShape"><tspan class="TextParagraph" font-family="Liberation Sans, sans-serif" font-size="353px" font-weight="400"><tspan class="TextPosition" x="6069" y="7956"><tspan fill="rgb(0,0,0)" stroke="none">4000</tspan></tspan></tspan></text>
 <text class="TextShape"><tspan class="TextParagraph" font-family="Liberation Sans, sans-serif" font-size="353px" font-weight="400"><tspan class="TextPosition" x="8263" y="7956"><tspan fill="rgb(0,0,0)" stroke="none">6000</tspan></tspan></tspan></text>
 <text class="TextShape"><tspan class="TextParagraph" font-family="Liberation Sans, sans-serif" font-size="353px" font-weight="400"><tspan class="TextPosition" x="10456" y="7956"><tspan fill="rgb(0,0,0)" stroke="none">8000</tspan></tspan></tspan></text>
 <text class="TextShape"><tspan class="TextParagraph" font-family="Liberation Sans, sans-serif" font-size="353px" font-weight="400"><tspan class="TextPosition" x="12558" y="7956"><tspan fill="rgb(0,0,0)" stroke="none">10000</tspan></tspan></tspan></text>
 <text class="TextShape"><tspan class="TextParagraph" font-family="Liberation Sans, sans-serif" font-size="353px" font-weight="400"><tspan class="TextPosition" x="14752" y="7956"><tspan fill="rgb(0,0,0)" stroke="none">12000</tspan></tspan></tspan></text>
 <text class="TextShape"><tspan class="TextParagraph" font-family="Liberation Sans, sans-serif" font-size="353px" font-weight="400"><tspan class="TextPosition" x="1618" y="7509"><tspan fill="rgb(0,0,0)" stroke="none">0</tspan></tspan></tspan></text>
 <text class="TextShape"><tspan class="TextParagraph" font-family="Liberation Sans, sans-serif" font-size="353px" font-weight="400"><tspan class="TextPosition" x="507" y="6340"><tspan fill="rgb(0,0,0)" stroke="none">5000000</tspan></tspan></tspan></text>
 <text class="TextShape"><tspan class="TextParagraph" font-family="Liberation Sans, sans-serif" font-size="353px" font-weight="400"><tspan class="TextPosition" x="321" y="5172"><tspan fill="rgb(0,0,0)" stroke="none">10000000</tspan></tspan></tspan></text>
 <text class="TextShape"><tspan class="TextParagraph" font-family="Liberation Sans, sans-serif" font-size="353px" font-weight="400"><tspan class="TextPosition" x="321" y="4003"><tspan fill="rgb(0,0,0)" stroke="none">15000000</tspan></tspan></tspan></text>
 <text class="TextShape"><tspan class="TextParagraph" font-family="Liberation Sans, sans-serif" font-size="353px" font-weight="400"><tspan class="TextPosition" x="321" y="2835"><tspan fill="rgb(0,0,0)" stroke="none">20000000</tspan></tspan></tspan></text>
 <text class="TextShape"><tspan class="TextParagraph" font-family="Liberation Sans, sans-serif" font-size="353px" font-weight="400"><tspan class="TextPosition" x="321" y="1666"><tspan fill="rgb(0,0,0)" stroke="none">25000000</tspan></tspan></tspan></text>
 <text class="TextShape"><tspan class="TextParagraph" font-family="Liberation Sans, sans-serif" font-size="353px" font-weight="400"><tspan class="TextPosition" x="321" y="498"><tspan fill="rgb(0,0,0)" stroke="none">30000000</tspan></tspan></tspan></text>
 <path fill="none" stroke="rgb(0,69,134)" stroke-width="80" stroke-linejoin="round" d="M 5829,8698 L 6629,8698"/>
 <text class="TextShape"><tspan class="TextParagraph" font-family="Liberation Sans, sans-serif" font-size="353px" font-weight="400"><tspan class="TextPosition" x="6729" y="8818"><tspan fill="rgb(0,0,0)" stroke="none">Cumulative Frequency</tspan></tspan></tspan></text>
</svg>