<?xml version="1.0" encoding="UTF-8"?>
<!DOCTYPE svg PUBLIC "-//W3C//DTD SVG 1.1//EN" "http://www.w3.org/Graphics/SVG/1.1/DTD/svg11.dtd">
<svg width="160mm" height="90mm" viewBox="0 0 16000 9000" version="1.1" xmlns="http://www.w3.org/2000/svg" stroke-width="28.222" stroke-linejoin="round" xml:space="preserve">
 <path fill="rgb(255,255,255)" stroke="none" d="M 7998,8996 L 0,8996 0,0 15996,0 15996,8996 7998,8996 Z"/>
 <path fill="none" stroke="rgb(179,179,179)" stroke-linejoin="round" d="M 8632,7387 L 2052,7387 2052,378 15212,378 15212,7387 8632,7387 Z"/>
 <path fill="none" stroke="rgb(179,179,179)" stroke-linejoin="round" d="M 15212,7386 L 2052,7386"/>
 <path fill="none" stroke="rgb(179,179,179)" stroke-linejoin="round" d="M 15212,6217 L 2052,6217"/>
 <path fill="none" stroke="rgb(179,179,179)" stroke-linejoin="round" d="M 15212,5049 L 2052,5049"/>
 <path fill="none" stroke="rgb(179,179,179)" stroke-linejoin="round" d="M 15212,3882 L 2052,3882"/>
 <path fill="none" stroke="rgb(179,179,179)" stroke-linejoin="round" d="M 15212,2713 L 2052,2713"/>
 <path fill="none" stroke="rgb(179,179,179)" stroke-linejoin="round" d="M 15212,1545 L 2052,1545"/>
 <path fill="none" stroke="rgb(179,179,179)" stroke-linejoin="round" d="M 15212,377 L 2052,377"/>
 <path fill="none" stroke="rgb(179,179,179)" stroke-linejoin="round" d="M 2052,7536 L 2052,7386"/>
 <path fill="none" stroke="rgb(179,179,179)" stroke-linejoin="round" d="M 2052,7536 L 2052,7386"/>
 <path fill="none" stroke="rgb(179,179,179)" stroke-linejoin="round" d="M 4245,7536 L 4245,7386"/>
 <path fill="none" stroke="rgb(179,179,179)" stroke-linejoin="round" d="M 4245,7536 L 4245,7386"/>
 <path fill="none" stroke="rgb(179,179,179)" stroke-linejoin="round" d="M 6439,7536 L 6439,7386"/>
 <path fill="none" stroke="rgb(179,179,179)" stroke-linejoin="round" d="M 6439,7536 L 6439,7386"/>
 <path fill="none" stroke="rgb(179,179,179)" stroke-linejoin="round" d="M 8631,7536 L 8631,7386"/>
 <path fill="none" stroke="rgb(179,179,179)" stroke-linejoin="round" d="M 8631,7536 L 8631,7386"/>
 <path fill="none" stroke="rgb(179,179,179)" stroke-linejoin="round" d="M 10825,7536 L 10825,7386"/>
 <path fill="none" stroke="rgb(179,179,179)" stroke-linejoin="round" d="M 10825,7536 L 10825,7386"/>
 <path fill="none" stroke="rgb(179,179,179)" stroke-linejoin="round" d="M 13018,7536 L 13018,7386"/>
 <path fill="none" stroke="rgb(179,179,179)" stroke-linejoin="round" d="M 13018,7536 L 13018,7386"/>
 <path fill="none" stroke="rgb(179,179,179)" stroke-linejoin="round" d="M 15212,7536 L 15212,7386"/>
 <path fill="none" stroke="rgb(179,179,179)" stroke-linejoin="round" d="M 15212,7536 L 15212,7386"/>
 <path fill="none" stroke="rgb(179,179,179)" stroke-linejoin="round" d="M 2052,7386 L 15212,7386"/>
 <path fill="none" stroke="rgb(179,179,179)" stroke-linejoin="round" d="M 1902,7386 L 2052,7386"/>
 <path fill="none" stroke="rgb(179,179,179)" stroke-linejoin="round" d="M 1902,7386 L 2052,7386"/>
 <path fill="none" stroke="rgb(179,179,179)" stroke-linejoin="round" d="M 1902,6217 L 2052,6217"/>
 <path fill="none" stroke="rgb(179,179,179)" stroke-linejoin="round" d="M 1902,6217 L 2052,6217"/>
 <path fill="none" stroke="rgb(179,179,179)" stroke-linejoin="round" d="M 1902,5049 L 2052,5049"/>
 <path fill="none" stroke="rgb(179,179,179)" stroke-linejoin="round" d="M 1902,5049 L 2052,5049"/>
 <path fill="none" stroke="rgb(179,179,179)" stroke-linejoin="round" d="M 1902,3882 L 2052,3882"/>
 <path fill="none" stroke="rgb(179,179,179)" stroke-linejoin="round" d="M 1902,3882 L 2052,3882"/>
 <path fill="none" stroke="rgb(179,179,179)" stroke-linejoin="round" d="M 1902,2713 L 2052,2713"/>
 <path fill="none" stroke="rgb(179,179,179)" stroke-linejoin="round" d="M 1902,2713 L 2052,2713"/>
 <path fill="none" stroke="rgb(179,179,179)" stroke-linejoin="round" d="M 1902,1545 L 2052,1545"/>
 <path fill="none" stroke="rgb(179,179,179)" stroke-linejoin="round" d="M 1902,1545 L 2052,1545"/>
 <path fill="none" stroke="rgb(179,179,179)" stroke-linejoin="round" d="M 1902,377 L 2052,377"/>
 <path fill="none" stroke="rgb(179,179,179)" stroke-linejoin="round" d="M 1902,377 L 2052,377"/>
 <path fill="none" stroke="rgb(179,179,179)" stroke-linejoin="round" d="M 2052,7386 L 2052,377"/>
 <path fill="none" stroke="rgb(0,69,134)" stroke-width="80" stroke-linejoin="round" d="M 2053,7224 L 2054,7081 2055,6964 2056,6925 2057,6892 2058,6864 2059,6839 2060,6815 2061,6801 2062,6788 2064,6776 2065,6764 2066,6752 2067,6741 2068,6729 2069,6718 2070,6707 2071,6696 2073,6675 2075,6665 2076,6655 2077,6645 2079,6626 2080,6617 2082,6598 2083,6590 2085,6574 2087,6566 2089,6550 2091,6536 2093,6521 2095,6508 2098,6495 2100,6482 2102,6470 2104,6458 2106,6446 2109,6435 2112,6418 2114,6407 2117,6391 2119,6381 2121,6376 2123,6366 2125,6356 2128,6341 2132,6327 2134,6318 2135,6313 2138,6300 2141,6287 2145,6275 2148,6263 2152,6247 2156,6236 2160,6221 2161,6217 2163,6210 2168,6196 2172,6181 2175,6171 2180,6157 2184,6144 2189,6131 2194,6115 2198,6103 2203,6091 2208,6076 2213,6064 2216,6056 2218,6050 2224,6036 2228,6025 2230,6020 2234,6011 2239,5998 2243,5987 2245,5985 2250,5972 2255,5959 2258,5953 2261,5946 2266,5933 2271,5923 2273,5918 2279,5905 2284,5893 2285,5891 2291,5878 2296,5866 2298,5862 2303,5852 2308,5841 2313,5831 2315,5827 2321,5813 2326,5804 2328,5800 2334,5787 2339,5778 2341,5774 2348,5761 2353,5750 2354,5748 2361,5735 2366,5725 2368,5720 2375,5708 2381,5698 2382,5696 2389,5681 2394,5673 2396,5669 2404,5655 2408,5647 2411,5641 2418,5629 2421,5623 2425,5615 2433,5602 2435,5598 2441,5589 2449,5575 2456,5562 2463,5551 2464,5549 2472,5536 2476,5529 2479,5524 2488,5509 2490,5506 2496,5497 2503,5484 2512,5470 2518,5462 2521,5457 2529,5444 2531,5441 2537,5431 2545,5419 2546,5417 2555,5404 2558,5399 2564,5391 2572,5377 2581,5364 2586,5358 2590,5351 2599,5339 2608,5326 2613,5318 2617,5312 2626,5299 2636,5285 2640,5279 2645,5273 2654,5261 2655,5259 2665,5246 2668,5241 2674,5232 2681,5224 2684,5219 2694,5206 2695,5205 2704,5193 2708,5187 2714,5180 2723,5169 2724,5167 2735,5153 2736,5152 2745,5141 2750,5134 2756,5127 2763,5118 2767,5114 2776,5101 2778,5100 2787,5088 2791,5084 2798,5075 2805,5067 2809,5062 2818,5051 2820,5048 2831,5035 2832,5034 2843,5021 2846,5019 2854,5008 2859,5003 2865,4996 2873,4987 2877,4982 2886,4972 2888,4969 2900,4956 2911,4943 2914,4941 2923,4930 2928,4925 2935,4916 2941,4910 2948,4903 2955,4894 2960,4889 2968,4880 2972,4876 2983,4864 2984,4863 2996,4850 3008,4837 3010,4835 3021,4823 3023,4821 3033,4811 3037,4806 3045,4798 3051,4792 3058,4784 3065,4777 3070,4772 3078,4764 3084,4758 3092,4749 3097,4744 3105,4735 3110,4731 3119,4722 3122,4719 3133,4708 3135,4706 3146,4695 3148,4692 3160,4680 3163,4678 3173,4667 3176,4665 3188,4653 3189,4652 3201,4640 3202,4639 3215,4626 3216,4625 3228,4614 3229,4613 3243,4600 3244,4599 3256,4588 3257,4586 3270,4574 3271,4573 3283,4562 3285,4560 3297,4548 3300,4546 3311,4536 3313,4534 3325,4523 3328,4520 3338,4511 3342,4507 3352,4498 3357,4495 3365,4487 3371,4482 3379,4475 3386,4468 3393,4462 3401,4455 3406,4451 3416,4442 3420,4438 3430,4429 3433,4426 3445,4416 3448,4414 3461,4403 3475,4390 3476,4389 3488,4379 3492,4376 3503,4367 3508,4362 3516,4356 3523,4350 3530,4344 3539,4337 3543,4333 3555,4323 3557,4321 3570,4310 3585,4299 3587,4297 3598,4288 3602,4284 3612,4276 3619,4271 3625,4266 3635,4258 3638,4255 3652,4245 3653,4244 3666,4233 3669,4231 3680,4222 3686,4218 3693,4212 3703,4204 3708,4201 3720,4191 3721,4191 3735,4180 3737,4178 3748,4170 3755,4165 3762,4159 3772,4152 3776,4149 3790,4138 3803,4129 3807,4125 3817,4118 3825,4112 3830,4108 3844,4099 3845,4098 3858,4088 3861,4086 3872,4078 3880,4072 3885,4069 3898,4059 3913,4049 3917,4046 3926,4040 3936,4033 3940,4029 3953,4020 3954,4019 3968,4010 3973,4006 3981,4001 3992,3994 3995,3991 4008,3982 4011,3980 4022,3972 4030,3967 4036,3963 4050,3954 4063,3945 4070,3940 4077,3935 4089,3927 4090,3927 4105,3917 4109,3914 4118,3908 4129,3901 4132,3899 4145,3890 4150,3887 4158,3882 4169,3875 4173,3872 4186,3864 4190,3861 4200,3855 4210,3848 4213,3846 4227,3837 4231,3835 4241,3829 4252,3822 4255,3820 4268,3811 4272,3809 4282,3802 4293,3795 4295,3794 4310,3785 4314,3782 4323,3777 4336,3769 4337,3768 4350,3760 4357,3756 4365,3751 4378,3743 4379,3742 4392,3734 4401,3729 4405,3727 4419,3718 4423,3716 4433,3710 4445,3703 4446,3702 4460,3694 4467,3690 4473,3686 4487,3677 4488,3677 4501,3669 4510,3664 4515,3661 4528,3653 4533,3650 4542,3645 4555,3637 4556,3637 4570,3629 4578,3624 4583,3621 4597,3613 4601,3611 4610,3606 4624,3598 4638,3590 4649,3584 4652,3582 4665,3575 4672,3571 4679,3567 4692,3559 4695,3558 4706,3552 4719,3545 4720,3544 4733,3537 4743,3531 4747,3529 4760,3521 4767,3518 4775,3514 4788,3506 4791,3505 4802,3499 4815,3492 4830,3484 4839,3478 4843,3477 4857,3469 4864,3465 4870,3462 4884,3454 4889,3452 4898,3447 4912,3440 4913,3439 4925,3433 4938,3426 4939,3425 4952,3418 4963,3413 4966,3412 4980,3404 4989,3400 4993,3397 5007,3390 5015,3386 5020,3383 5035,3376 5040,3373 5048,3369 5062,3362 5066,3360 5075,3355 5089,3348 5092,3347 5103,3341 5117,3334 5118,3333 5130,3327 5144,3320 5157,3314 5171,3307 5172,3306 5185,3300 5197,3294 5199,3293 5212,3286 5224,3280 5225,3280 5240,3273 5251,3267 5253,3266 5267,3259 5278,3254 5280,3253 5295,3246 5304,3241 5308,3240 5322,3233 5332,3228 5335,3226 5349,3219 5359,3215 5363,3213 5377,3206 5387,3202 5390,3200 5404,3193 5415,3188 5417,3187 5432,3180 5443,3175 5445,3174 5459,3167 5471,3162 5472,3161 5485,3155 5500,3148 5513,3142 5527,3136 5540,3130 5555,3123 5557,3122 5568,3117 5582,3110 5585,3109 5595,3104 5609,3098 5614,3096 5623,3092 5637,3085 5642,3083 5650,3079 5664,3073 5672,3069 5677,3067 5692,3060 5701,3056 5705,3054 5719,3048 5730,3043 5732,3042 5745,3036 5760,3030 5773,3024 5787,3018 5790,3016 5800,3012 5814,3006 5820,3003 5828,3000 5842,2994 5850,2990 5855,2988 5869,2982 5880,2977 5882,2976 5897,2970 5910,2964 5924,2958 5937,2952 5941,2951 5952,2946 5965,2940 5971,2937 5979,2934 5992,2928 6002,2924 6005,2923 6020,2917 6033,2911 6047,2905 6060,2899 6065,2898 6074,2893 6088,2888 6095,2885 6102,2882 6115,2876 6127,2871 6129,2870 6142,2865 6157,2859 6158,2858 6170,2853 6184,2847 6190,2845 6197,2842 6211,2836 6221,2832 6225,2830 6239,2825 6252,2819 6253,2819 6265,2814 6279,2808 6285,2806 6293,2802 6307,2797 6318,2792 6320,2791 6334,2785 6347,2780 6350,2779 6362,2774 6375,2769 6383,2766 6389,2763 6402,2758 6415,2752 6417,2752 6430,2747 6444,2741 6448,2739 6457,2736 6471,2730 6481,2726 6485,2725 6499,2719 6512,2714 6514,2713 6526,2708 6539,2703 6547,2700 6553,2698 6567,2692 6580,2687 6594,2681 6607,2676 6614,2673 6622,2670 6635,2665 6648,2660 6649,2660 6662,2654 6676,2649 6681,2647 6690,2644 6704,2638 6715,2634 6717,2633 6731,2627 6744,2622 6749,2621 6759,2617 6772,2612 6784,2607 6786,2606 6799,2601 6812,2596 6818,2594 6827,2591 6840,2586 6852,2581 6854,2580 6867,2575 6882,2570 6887,2568 6895,2565 6909,2559 6921,2555 6922,2554 6936,2549 6950,2544 6956,2541 6964,2538 6977,2534 6991,2528 7004,2523 7019,2518 7026,2515 7032,2513 7046,2508 7059,2503 7061,2502 7072,2498 7087,2492 7097,2489 7100,2487 7114,2482 7127,2477 7133,2475 7142,2472 7155,2467 7168,2462 7169,2462 7182,2457 7196,2452 7204,2449 7210,2447 7224,2442 7237,2437 7240,2436 7251,2432 7264,2427 7276,2422 7279,2422 7292,2417 7306,2412 7313,2409 7319,2407 7332,2402 7347,2397 7349,2396 7360,2392 7374,2387 7386,2383 7387,2382 7401,2377 7415,2373 7422,2370 7429,2367 7442,2363 7456,2358 7460,2356 7469,2353 7484,2348 7497,2343 7511,2338 7524,2333 7534,2330 7539,2328 7552,2324 7566,2319 7571,2317 7579,2314 7592,2309 7607,2304 7609,2304 7620,2300 7634,2295 7646,2291 7647,2290 7661,2285 7675,2281 7684,2277 7689,2276 7702,2271 7716,2266 7723,2264 7729,2262 7744,2257 7757,2252 7761,2251 7771,2247 7784,2243 7798,2238 7800,2238 7812,2233 7826,2229 7838,2224 7839,2224 7852,2220 7866,2215 7876,2211 7880,2210 7894,2205 7907,2201 7915,2198 7921,2196 7934,2192 7949,2187 7954,2185 7962,2182 7976,2178 7989,2173 7994,2172 8003,2168 8016,2164 8030,2159 8031,2159 8043,2155 8057,2150 8071,2145 8085,2141 8098,2136 8110,2132 8111,2132 8125,2127 8139,2123 8151,2119 8153,2118 8166,2114 8180,2109 8190,2106 8193,2105 8208,2100 8221,2096 8230,2093 8235,2091 8248,2087 8262,2082 8270,2079 8276,2078 8290,2073 8303,2069 8311,2066 8317,2064 8330,2060 8345,2055 8351,2053 8358,2051 8371,2046 8385,2042 8392,2040 8398,2037 8413,2033 8426,2029 8432,2026 8440,2024 8453,2020 8468,2015 8473,2013 8481,2011 8495,2006 8508,2002 8515,2000 8522,1997 8536,1993 8550,1989 8555,1987 8563,1984 8577,1980 8590,1976 8597,1974 8605,1971 8618,1967 8631,1963 8639,1960 8645,1958 8658,1954 8673,1950 8680,1947 8686,1946 8700,1941 8713,1937 8722,1934 8728,1932 8741,1928 8755,1924 8765,1921 8768,1920 8782,1915 8796,1911 8806,1908 8810,1907 8823,1903 8837,1898 8849,1894 8850,1894 8865,1890 8878,1886 8892,1881 8905,1877 8918,1873 8933,1869 8935,1868 8946,1865 8960,1860 8973,1856 8978,1855 8987,1852 9001,1848 9015,1843 9020,1842 9028,1839 9042,1835 9055,1831 9064,1828 9070,1827 9083,1823 9097,1818 9107,1815 9110,1814 9125,1810 9138,1806 9151,1802 9152,1802 9165,1798 9178,1794 9193,1789 9195,1789 9206,1786 9220,1781 9233,1777 9239,1776 9247,1773 9261,1769 9275,1765 9282,1763 9288,1761 9302,1757 9315,1753 9326,1749 9330,1748 9343,1745 9357,1740 9370,1736 9371,1736 9384,1732 9398,1728 9412,1724 9416,1723 9425,1720 9438,1716 9452,1712 9460,1710 9466,1708 9480,1704 9493,1700 9505,1697 9507,1696 9520,1692 9535,1688 9548,1684 9551,1683 9562,1680 9575,1676 9590,1672 9596,1670 9603,1668 9617,1664 9630,1660 9641,1657 9644,1656 9658,1652 9672,1648 9685,1644 9687,1644 9698,1641 9712,1636 9726,1633 9733,1631 9740,1629 9753,1625 9767,1621 9779,1617 9780,1617 9795,1613 9808,1609 9822,1605 9826,1604 9835,1601 9849,1597 9863,1594 9873,1591 9877,1590 9890,1586 9904,1582 9917,1578 9920,1578 9932,1574 9945,1570 9958,1567 9966,1565 9972,1563 9985,1559 10000,1555 10013,1551 10027,1547 10040,1544 10055,1540 10061,1538 10068,1536 10082,1532 10095,1529 10108,1525 10109,1525 10123,1521 10137,1517 10150,1513 10157,1512 10164,1509 10177,1506 10192,1502 10204,1499 10205,1498 10218,1495 10232,1491 10245,1487 10252,1485 10260,1483 10273,1480 10287,1476 10300,1472 10315,1468 10328,1465 10342,1461 10350,1459 10355,1457 10369,1453 10383,1450 10397,1446 10398,1446 10410,1442 10424,1439 10437,1435 10447,1432 10452,1431 10465,1428 10478,1424 10492,1420 10497,1419 10505,1417 10520,1413 10533,1409 10546,1406 10547,1406 10560,1402 10574,1398 10588,1395 10595,1393 10602,1391 10615,1388 10629,1384 10642,1380 10645,1380 10657,1377 10670,1373 10684,1369 10695,1366 10697,1366 10712,1362 10725,1359 10738,1355 10744,1353 10752,1351 10765,1348 10780,1344 10793,1341 10795,1340 10807,1337 10820,1334 10834,1330 10846,1327 10848,1326 10862,1323 10875,1319 10889,1316 10897,1314 10902,1312 10917,1309 10930,1305 10944,1301 10948,1300 10957,1298 10971,1294 10985,1291 10999,1287 11012,1284 11025,1281 11039,1277 11050,1274 11053,1274 11067,1270 11080,1267 11094,1263 11103,1261 11107,1260 11122,1256 11135,1253 11149,1249 11155,1248 11162,1246 11177,1242 11190,1239 11204,1235 11207,1234 11217,1232 11231,1228 11245,1225 11259,1221 11272,1218 11285,1215 11299,1211 11311,1208 11313,1208 11327,1204 11340,1201 11354,1198 11365,1195 11367,1194 11382,1191 11395,1187 11409,1184 11418,1182 11422,1181 11436,1177 11450,1174 11464,1170 11472,1168 11477,1167 11491,1164 11504,1160 11519,1157 11525,1155 11532,1154 11545,1150 11559,1147 11572,1144 11579,1142 11587,1140 11600,1137 11614,1134 11627,1130 11634,1129 11642,1127 11655,1124 11669,1120 11682,1117 11688,1116 11696,1114 11710,1110 11724,1107 11737,1104 11742,1102 11751,1100 11764,1097 11779,1094 11792,1091 11797,1089 11805,1087 11819,1084 11832,1081 11847,1078 11853,1076 11860,1074 11874,1071 11887,1068 11902,1065 11908,1063 11915,1061 11929,1058 11942,1055 11956,1052 11965,1050 11970,1048 11984,1045 11997,1042 12011,1039 12021,1036 12024,1036 12039,1032 12052,1029 12065,1026 12077,1023 12079,1023 12092,1020 12107,1016 12120,1013 12134,1010 12147,1007 12161,1004 12175,1001 12189,998 12192,997 12202,994 12216,991 12229,988 12244,985 12249,984 12257,982 12271,979 12284,976 12299,973 12307,971 12312,970 12325,967 12339,963 12352,960 12367,957 12380,954 12394,951 12407,948 12421,945 12426,944 12435,942 12449,939 12462,936 12476,933 12485,931 12489,930 12504,927 12517,924 12531,921 12544,918 12545,918 12558,915 12572,912 12585,909 12599,906 12606,904 12612,903 12626,900 12640,897 12654,894 12667,891 12681,888 12694,885 12709,882 12722,879 12728,878 12736,876 12749,874 12764,871 12777,868 12791,865 12804,862 12818,859 12832,857 12845,854 12856,852 12859,851 12872,848 12886,845 12900,843 12914,840 12921,838 12927,837 12941,835 12954,832 12969,829 12982,827 12989,825 12996,824 13009,822"/>
 <text class="TextShape"><tspan class="TextParagraph" font-family="Liberation Sans, sans-serif" font-size="353px" font-weight="400"><tspan class="TextPosition" x="1959" y="7954"><tspan fill="rgb(0,0,0)" stroke="none">0</tspan></tspan></tspan></text>
 <text class="TextShape"><tspan class="TextParagraph" font-family="Liberation Sans, sans-serif" font-size="353px" font-weight="400"><tspan class="TextPosition" x="3874" y="7954"><tspan fill="rgb(0,0,0)" stroke="none">2000</tspan></tspan></tspan></text>
 <text class="TextShape"><tspan class="TextParagraph" font-family="Liberation Sans, sans-serif" font-size="353px" font-weight="400"><tspan class="TextPosition" x="6068" y="7954"><tspan fill="rgb(0,0,0)" stroke="none">4000</tspan></tspan></tspan></text>
 <text class="TextShape"><tspan class="TextParagraph" font-family="Liberation Sans, sans-serif" font-size="353px" font-weight="400"><tspan class="TextPosition" x="8261" y="7954"><tspan fill="rgb(0,0,0)" stroke="none">6000</tspan></tspan></tspan></text>
 <text class="TextShape"><tspan class="TextParagraph" font-family="Liberation Sans, sans-serif" font-size="353px" font-weight="400"><tspan class="TextPosition" x="10455" y="7954"><tspan fill="rgb(0,0,0)" stroke="none">8000</tspan></tspan></tspan></text>
 <text class="TextShape"><tspan class="TextParagraph" font-family="Liberation Sans, sans-serif" font-size="353px" font-weight="400"><tspan class="TextPosition" x="12556" y="7954"><tspan fill="rgb(0,0,0)" stroke="none">10000</tspan></tspan></tspan></text>
 <text class="TextShape"><tspan class="TextParagraph" font-family="Liberation Sans, sans-serif" font-size="353px" font-weight="400"><tspan class="TextPosition" x="14750" y="7954"><tspan fill="rgb(0,0,0)" stroke="none">12000</tspan></tspan></tspan></text>
 <text class="TextShape"><tspan class="TextParagraph" font-family="Liberation Sans, sans-serif" font-size="353px" font-weight="400"><tspan class="TextPosition" x="1617" y="7507"><tspan fill="rgb(0,0,0)" stroke="none">0</tspan></tspan></tspan></text>
 <text class="TextShape"><tspan class="TextParagraph" font-family="Liberation Sans, sans-serif" font-size="353px" font-weight="400"><tspan class="TextPosition" x="506" y="6338"><tspan fill="rgb(0,0,0)" stroke="none">5000000</tspan></tspan></tspan></text>
 <text class="TextShape"><tspan class="TextParagraph" font-family="Liberation Sans, sans-serif" font-size="353px" font-weight="400"><tspan class="TextPosition" x="320" y="5170"><tspan fill="rgb(0,0,0)" stroke="none">10000000</tspan></tspan></tspan></text>
 <text class="TextShape"><tspan class="TextParagraph" font-family="Liberation Sans, sans-serif" font-size="353px" font-weight="400"><tspan class="TextPosition" x="320" y="4002"><tspan fill="rgb(0,0,0)" stroke="none">15000000</tspan></tspan></tspan></text>
 <text class="TextShape"><tspan class="TextParagraph" font-family="Liberation Sans, sans-serif" font-size="353px" font-weight="400"><tspan class="TextPosition" x="320" y="2833"><tspan fill="rgb(0,0,0)" stroke="none">20000000</tspan></tspan></tspan></text>
 <text class="TextShape"><tspan class="TextParagraph" font-family="Liberation Sans, sans-serif" font-size="353px" font-weight="400"><tspan class="TextPosition" x="320" y="1665"><tspan fill="rgb(0,0,0)" stroke="none">25000000</tspan></tspan></tspan></text>
 <text class="TextShape"><tspan class="TextParagraph" font-family="Liberation Sans, sans-serif" font-size="353px" font-weight="400"><tspan class="TextPosition" x="320" y="497"><tspan fill="rgb(0,0,0)" stroke="none">30000000</tspan></tspan></tspan></text>
 <path fill="none" stroke="rgb(0,69,134)" stroke-width="80" stroke-linejoin="round" d="M 5827,8695 L 6627,8695"/>
 <text class="TextShape"><tspan class="TextParagraph" font-family="Liberation Sans, sans-serif" font-size="353px" font-weight="400"><tspan class="TextPosition" x="6727" y="8815"><tspan fill="rgb(0,0,0)" stroke="none">Cumulative Frequency</tspan></tspan></tspan></text>
</svg>